<?xml version="1.0" encoding="utf-8"?>
<!-- Generator: Adobe Illustrator 17.0.0, SVG Export Plug-In . SVG Version: 6.00 Build 0)  -->
<!DOCTYPE svg PUBLIC "-//W3C//DTD SVG 1.1//EN" "http://www.w3.org/Graphics/SVG/1.1/DTD/svg11.dtd">
<svg version="1.1" id="Livello_1" xmlns="http://www.w3.org/2000/svg" xmlns:xlink="http://www.w3.org/1999/xlink" x="0px" y="0px"
	 width="2141.935px" height="536.708px" viewBox="0 0 2141.935 536.708" enable-background="new 0 0 2141.935 536.708"
	 xml:space="preserve">
<g>
	<g>
		<path d="M197.644,114.554c1.029,14.157,7.418,26.454,19.346,34.373c12.459,8.272,28.255,10.517,42.898,10.683
			c39.154,0.443,75.354-14.849,108.511-34.252c14.364-8.406,28.22-17.931,38.559-31.182c7.553-9.682,13.929-23.386,10.985-35.945
			c-2.487-10.613-13.436-16.74-22.744-20.476c-14.734-5.913-31.04-7.954-46.762-9.089c-38.708-2.796-78.721,1.157-116.316,10.655
			c-15.752,3.979-31.197,9.291-45.39,17.275c-11.888,6.688-28.357,13.765-34.774,26.912c-4.602,9.428,0.477,20.256,6.276,27.824
			c8.981,11.719,21.801,20.51,34.07,28.424c34.721,22.394,72.904,39.314,109.832,57.646c18.578,9.223,37.084,18.644,55.005,29.099
			c14.51,8.465,28.94,17.659,41.226,29.2c10.457,9.823,17.019,21.191,19.005,35.551c1.927,13.934-2.598,27.28-11.469,38.002
			c-4.821,5.827-10.773,10.7-17.02,14.916c-0.789,0.533-1.592,1.045-2.394,1.557c-5.423,3.462,13.954-7.804,8.208-4.721
			c-1.992,1.069-4.019,2.074-6.058,3.05c-4.152,1.987-8.4,3.769-12.683,5.449c-17.899,7.022-36.692,11.71-55.532,15.396
			c-34.867,6.82-70.686,10.125-106.208,10.289c-12.895,0.06-27.968-2.71-39.942,2.578c-5.666,3.281-11.332,6.563-16.998,9.844
			c30.244-15.054,61.728-27.275,92.711-40.673c29.544-12.776,57.958-27.679,85.303-44.668
			c28.476-17.691,54.201-39.876,78.569-62.796c24.508-23.053,47.229-48.12,66.755-75.551c16.248-22.825,29.936-47.55,39.537-73.903
			c-0.541,1.486-7.374,4.142-8.71,4.913c-2.144,1.238-7.148,2.987-8.61,5.087c-17.999,25.849-32.025,55.219-45.403,83.621
			c-9.117,19.354-17.545,39.066-24.687,59.238c-6.086,17.189-11.477,35.015-13.34,53.221c-1.15,11.236-1.211,25.477,7.511,33.975
			c4.572,4.455,11.734,6.845,18.012,6.995c9.099,0.217,17.468-6.303,24.853-10.625c12.617-7.383,20.06-17.888,24.604-31.756
			c2.489-7.598,6.8-22.58,0.728-29.64c-3.127-3.636-8.588,0.649-11.422,2.262c-8.871,5.048-16.238,8.998-22.494,17.037
			c-8.425,10.826-17.685,28.534-1.876,37.284c13.404,7.419,32.188,5.58,46.712,3.634c19.849-2.659,36.197-10.247,53.542-20.14
			c28.103-16.029,53.588-34.574,77.47-56.428c22.071-20.197,42.496-42.081,63.716-63.148
			c37.009-36.742,77.401-73.975,101.439-121.003c5.307-10.383,9.454-21.464,11.203-33.026c1.282-8.477,3.711-21.101-1.833-28.683
			c-3.754-5.133-10.914-2.196-15.35,0.153c-10.107,5.352-20.297,11.031-28.965,18.558c-18.024,15.652-31.592,36.174-44.032,56.316
			c-17.947,29.058-32.155,60.263-46.327,91.273c-13.504,29.548-27.131,58.956-43.324,87.149
			c-11.711,20.39-22.819,41.122-34.382,61.596c-26.134,46.274-54.041,93.265-91.607,131.31
			c-8.341,8.448-17.311,16.285-26.964,23.202c-2.444,1.751-4.961,3.396-7.507,4.993c14.955-9.381,10.304-5.85,6.513-3.923
			c-1.402,0.713-2.829,1.369-4.26,2.019c-2.273,1.032-4.597,1.946-6.936,2.813c-1.155,0.428-2.325,0.813-3.496,1.198
			c-0.091,0.03-1.317-4.991-1.411-5.412c-5.71-25.535,4.443-53.106,16.417-75.299c6.573-12.182,14.618-23.581,23.678-34.034
			c4.024-4.643,8.353-9.016,12.895-13.153c2.115-1.926,4.321-3.747,6.563-5.522c1.072-0.849,2.175-1.657,3.279-2.463
			c0.975-0.704,1.965-1.388,2.969-2.05c4.28-2.747,1.363-1.069-8.75,5.034c31.294-16.609,67.726-12.582,101.799-12.518
			c26.713,0.05,56.811-3.172,81.146-15.059c11.536-5.635,24.825-12.113,33.733-21.604c6.471-6.894,16.379-20.35,10.575-30.23
			c-4.834-8.229-18.374-7.014-26.153-5.723c-12.677,2.104-24.263,8.304-35.276,14.622c-13.487,7.737-33.991,17.91-33.019,36.47
			c0.87,16.629,20.299,23.034,34.145,19.802c5.129-1.197,9.678-3.819,14.209-6.4c6.615-3.768,13.584-7.316,19.506-12.161
			c11.562-9.458,18.273-23.843,22.723-37.759c-5.773,3.333-11.547,6.667-17.32,10c-5.471,21.891-11.42,44.142-11.626,66.85
			c0.006-0.64,8.364-4.369,9.339-4.921c5.006-2.833,9.999-5.697,14.931-8.658c6.927-4.159,13.344-8.994,19.474-14.249
			c28.018-24.015,48.724-55.686,78.211-78.088c-5.773,3.333-11.547,6.667-17.32,10c-4.914,18.872-14.488,36.376-17.3,55.806
			c-0.67,4.633-0.622,9.308-0.14,13.951c0.048,0.463,9.935-1.799,10.807-2.043c6.698-1.876,12.788-5.283,18.791-8.702
			c14.273-8.13,27.059-16.599,38.673-28.322c10.87-10.973,20.304-23.243,30.433-34.876c-5.773,3.333-11.547,6.667-17.32,10
			c-6.855,11.164-13.571,22.921-16.752,35.738c-1.709,6.886-1.896,14.617,2.608,20.487c4.314,5.622,12.097,7.506,18.727,8.478
			c10.409,1.526,21.188,0.697,31.604-0.29c12.004-1.137,23.721-0.521,35.749-0.833c14.152-0.368,24.42-6.92,36.293-14.047
			c10.148-6.092,15.529-18.736,11.988-30.161c-3.718-11.998-16.718-19.326-27.739-23.269c-10.528-3.766-26.686-6.524-37.137-1.124
			c-6.249,3.229-12.36,6.862-18.338,10.568c-3.165,1.962-3.78,5.035-2.289,8.297c2.318,5.071,8.361,8.547,12.887,11.282
			c4.883,2.95,10.929,3.993,16.477,4.94c13.217,2.254,26.829,2.367,40.2,2.371c25.288,0.007,50.449-0.158,75.74,0.486
			c28.015,0.713,56.751,0.859,84.059-6.256c13.158-3.428,24.558-9.669,36.234-16.453c2.849-1.655,5.694-3.318,8.481-5.077
			c1.625-1.026,5.967-2.914,3.86-4.207c-5.131-3.148-10.663-5.614-16.27-7.775c-25.156-9.694-53.091-11.886-79.779-13.131
			c-27.066-1.262-54.164-0.551-81.242-1.149c-35.755-0.789-71.518-3.122-107.26-4.45c-77.549-2.881-155.128-4.877-232.707-6.781
			c-78.066-1.916-156.109-1.216-234.179,0.18c-142.468,2.548-285.102,6.876-427.482-1.077c-5.774,3.333-11.547,6.667-17.321,10
			c13.431-6.444,28.823-8.597,43.598-8.72c2.332-0.019,6.776-3.797,8.71-4.913c1.807-1.044,6.478-5.069,8.61-5.087
			c-14.775,0.122-30.167,2.275-43.598,8.72c-2.991,1.435-5.841,3.257-8.71,4.913c-1.633,0.943-6.681,5.194-8.61,5.087
			c155.686,8.697,311.637,2.745,467.41,0.417c155.622-2.326,311.338,2.441,466.827,8.818c31.025,1.272,61.992,3.054,93.048,3.146
			c28.219,0.083,56.498,0.056,84.593,3.042c13.331,1.417,26.602,3.653,39.518,7.277c5.639,1.582,11.162,3.552,16.544,5.857
			c2.546,1.09,5.024,2.327,7.47,3.624c1.19,0.631,2.35,1.315,3.509,2.001c2.204,1.303-1.851,2.869-3.267,3.804
			c16.472-10.863,11.954-6.639,6.718-4.196c-1.363,0.636-2.756,1.205-4.148,1.774c-2.846,1.165-5.769,2.137-8.702,3.057
			c-6.654,2.086-13.512,3.493-20.384,4.628c-14.035,2.318-28.326,2.977-42.53,3.167c-25.957,0.347-51.879-1.525-77.838-1.049
			c-13.449,0.247-26.897,0.522-40.344,0.049c-12.024-0.423-24.573-1.203-36.023-5.185c-5.593-1.945-23.007-12.204-16.067-20.172
			c4.951-5.684-20.132,10.018-12.422,7.232c1.164-0.421,2.397-0.65,3.606-0.895c3.069-0.62,6.249-0.674,9.366-0.684
			c7.463-0.022,14.791,1.306,21.858,3.642c11.548,3.817,23.324,11.458,27.739,23.269c2.057,5.501,1.271,11.427-0.757,16.785
			c-1.15,3.038-2.968,5.873-5.009,8.38c-0.847,1.041-1.883,1.91-2.906,2.768c12.651-10.609,15.131-7.557,7.795-5.406
			c-7.446,2.184-15.604,1.835-23.271,1.629c-8.041-0.217-15.76-0.097-23.755,0.738c-13.257,1.384-27.654,2.623-40.64-1.166
			c-30-8.753-6.682-47.386,2.966-63.1c-1.147,1.868-6.85,3.84-8.71,4.913c-2.431,1.404-6.729,2.927-8.61,5.087
			c-8.291,9.522-16.145,19.411-24.641,28.755c-4.532,4.985-9.295,9.751-14.312,14.247c-2.473,2.216-5.061,4.297-7.7,6.311
			c-1.636,1.249-3.335,2.413-5.047,3.554c-7.562,5.035,17.815-9.397,7.255-4.322c-5.688,2.734-11.793,4.435-18.038,5.243
			c-2.681,0.347-1.777-1.686-1.912-3.83c-0.125-1.991-0.02-3.991,0.078-5.979c0.198-4.033,0.99-8.028,1.869-11.958
			c3.672-16.417,11.588-31.565,15.824-47.833c-0.334,1.283-7.579,4.26-8.71,4.913c-2.826,1.631-6.004,3.106-8.61,5.087
			c-25.26,19.19-44.401,45.23-66.786,67.466c-5.278,5.243-10.792,10.242-16.583,14.913c-3.268,2.636-6.684,5.081-10.198,7.375
			c-7.241,4.726,16.232-8.948,8.652-5.003c-2.2,1.954-2.994,1.683-2.381-0.813c0.024-1.337,0.071-2.673,0.14-4.008
			c0.891-20.61,6.492-40.955,11.468-60.864c-0.315,1.262-7.599,4.272-8.71,4.913c-1.369,0.791-8.093,3.469-8.61,5.087
			c-3.645,11.396-8.669,22.34-16.438,31.534c-2.787,3.298-6.017,6.198-9.524,8.706c-7.708,5.511,19.065-10.144,10.744-6.222
			c-0.809,0.381-1.642,0.706-2.475,1.029c-1.855,0.721-3.785,1.226-5.73,1.632c-11.516,2.401-24.879-1.942-30.5-12.788
			c-7.096-13.691,4.702-27.244,15.4-34.515c6.339-4.309-15.756,8.662-8.654,4.943c1.654-0.866,3.352-1.643,5.052-2.412
			c3.039-1.375,6.116-2.627,9.263-3.73c6.076-2.129,12.474-3.386,18.906-3.613c8.154-0.288,18.349,2.205,19.498,11.664
			c1.389,11.439-10.251,24.491-18.558,30.782c-8.91,6.747,15.912-8.478,7.975-4.403c-1.768,0.908-3.6,1.685-5.429,2.459
			c-2.99,1.265-6.069,2.317-9.154,3.32c-6.675,2.17-13.543,3.738-20.42,5.108c-31.177,6.214-62.15,3.186-93.648,4.261
			c-17.034,0.581-33.836,3.426-49.557,10.173c-12.713,5.456-25.474,12.951-36.543,21.266c-21.14,15.881-37.47,38.94-48.83,62.573
			c-5.854,12.179-10.187,25.151-12.26,38.517c-0.917,5.91-1.174,11.904-0.873,17.873c0.144,2.857,0.542,5.693,1.039,8.507
			c0.245,1.384,0.582,2.749,0.92,4.112c0.659,2.655,0.545,2.775,3.1,1.899c11.55-3.958,22.086-10.407,32.568-16.541
			c9.7-5.676,18.853-11.915,27.468-19.147c40.296-33.826,69.183-80.89,95.439-125.814c12.61-21.576,24.544-43.534,36.7-65.367
			c14.053-25.24,27.853-50.358,40.082-76.565c25.738-55.155,48.71-115.204,89.824-161.202c3.407-3.812,7.002-7.454,10.758-10.923
			c1.721-1.59,3.51-3.103,5.332-4.576c0.85-0.688,1.727-1.342,2.605-1.994c0.737-0.541,1.487-1.064,2.249-1.569
			c5.197-3.333,0.987-0.918-12.631,7.244c5.289-2.801,11.77-3.652,15.012,2.331c4.631,8.546,1.747,21.848,0.082,30.776
			c-2.182,11.698-7.107,22.81-12.678,33.249c-24.675,46.233-65.134,82.87-101.813,119.421
			c-21.718,21.643-42.724,43.985-65.493,64.55c-11.956,10.799-24.435,21.019-37.553,30.378c-3.564,2.543-7.203,4.976-10.875,7.359
			c-1.613,1.047-3.247,2.061-4.882,3.074c7.297-4.525,1.64-1.062,0.007-0.215c-4.961,2.575-10.002,5.048-15.3,6.851
			c-15.208,5.177-32.161,7.199-48.168,6.511c-11.334-0.487-29.702-3.134-30.908-17.464c-0.718-8.531,5.088-17.039,9.846-23.537
			c2.238-3.056,4.695-5.98,7.527-8.504c0.477-0.425,0.982-0.814,1.49-1.201c6.255-4.759-20.85,10.941-14.22,8.23
			c0.821-0.336,1.698-0.473,2.58-0.437c8.519,0.354,5.005,19.049,4.099,23.456c-2.6,12.647-8.534,26.043-18.75,34.333
			c-8.653,7.022,19.604-9.753,10.449-5.963c-1.331,0.551-2.729,0.917-4.136,1.211c-3.264,0.681-6.638,0.437-9.871-0.272
			c-5.901-1.295-11.658-4.475-15.207-9.426c-7.397-10.321-5.757-25.72-4.02-37.466c2.78-18.793,8.897-37.112,15.501-54.859
			c14.001-37.629,31.872-74.021,51.548-108.989c4.891-8.692,9.847-17.444,15.552-25.636c-5.773,3.333-11.547,6.667-17.32,10
			c-22.815,62.623-67.903,114.784-116.636,159.009c-12.435,11.285-25.28,22.178-38.511,32.521
			c-7.167,5.603-14.604,10.858-22.191,15.875c-3.706,2.451-7.475,4.808-11.274,7.112c6.561-3.978-0.065-0.032-1.55,0.769
			c-2.313,1.248-4.645,2.461-6.979,3.668c-29.337,15.177-60.26,26.993-90.579,40.001c-13.884,5.957-27.634,12.216-41.16,18.949
			c-5.815,2.895-11.081,7.231-16.998,9.844c9.774-4.316,21.189-2.832,31.629-2.633c6.771,0.129,13.545,0.043,20.313-0.141
			c17.45-0.476,34.882-1.774,52.227-3.726c37.665-4.237,76.692-11.177,111.127-27.659c16.341-7.821,33.922-17.145,46.961-29.992
			c9.859-9.713,15.972-22.33,15.92-36.288c-0.121-32.431-29.064-51.586-53.831-66.747c-35.929-21.992-74.65-39.225-112.254-58.078
			c-17.971-9.01-35.854-18.28-53.028-28.746c-13.251-8.075-26.573-16.967-37.125-28.468c-6.968-7.594-12.904-17.448-10.843-28.128
			c0.917-4.752,4.202-8.842,7.557-12.158c1.973-1.95,4.172-3.664,6.426-5.274c0.72-0.514,1.461-0.999,2.203-1.482
			c4.229-2.756,10.018-5.09-10.475,5.994c1.922-1.039,3.887-1.997,5.867-2.92c33.333-15.538,72.297-20.819,108.666-22.836
			c18.848-1.045,37.859-0.814,56.606,1.521c14.219,1.771,29.136,4.713,41.702,11.922c9.733,5.584,15.292,13.779,14.503,25.157
			c-0.972,14.007-9.655,26.279-19.294,35.879c-6.006,5.982-12.817,11.147-19.905,15.771c-0.878,0.572-1.767,1.127-2.655,1.682
			c-5.635,3.519,13.385-7.516,7.458-4.306c-1.914,1.036-3.855,2.022-5.804,2.991c-4.517,2.246-9.147,4.263-13.822,6.155
			c-17.041,6.893-35.087,11.557-53.369,13.52c-27.295,2.93-64.708-0.55-75.938-30.367c-1.669-4.432-2.466-9.152-2.808-13.858
			c0.044,0.608-8.066,4.541-8.71,4.913C205.535,109.883,197.583,113.71,197.644,114.554L197.644,114.554z"/>
	</g>
</g>
<g>
	<g>
		<g>
			<path d="M1482.175,144.479c5.517-14.743,10.823-29.733,13.913-45.201c1.663-8.327,4.673-23.093-3.435-29.228
				c-3.85-2.913-9.369-1.962-13.645-0.773c-9.777,2.72-18.763,8.787-27.423,13.814c-19.246,11.172-36.387,24.275-51.399,40.763
				c-15.604,17.139-28.706,36.594-39.537,57.054c-9.947,18.788-19.079,39.719-22.206,60.894
				c-3.928,26.602,0.713,56.608,25.021,72.092c21.075,13.424,48.822,11.353,71.495,3.575c16.292-5.589,31.885-14.846,46.082-24.422
				c11.868-8.005,22.277-18.063,30.592-29.719c1.716-2.406,3.306-4.899,4.823-7.435c-5.773,3.333-11.547,6.667-17.32,10
				c3.699,38.809-11.031,77.473-29.519,110.865c-20.411,36.867-47.752,70.407-79.323,98.279c-7.151,6.314-14.61,12.28-22.345,17.862
				c-3.657,2.639-7.403,5.151-11.21,7.567c-0.875,0.555-1.756,1.1-2.642,1.637c2.793-1.613,5.586-3.226,8.379-4.839
				c-0.748,0.422-1.495,0.847-2.241,1.273c2.398-1.367-0.992,0.54-1.675,0.911c-14.397,7.837-29.341,14.824-44.844,20.182
				c-13.873,4.795-31.008,9.843-45.521,4.923c-10.9-3.695-18.348-16.497-17.298-27.732c1.132-12.112,10.749-22.194,19.419-29.801
				c5.742-5.038,12.008-9.472,18.423-13.606c1.539-0.992,3.094-1.959,4.66-2.907c4.711-2.853-10.909,6.195-6.106,3.526
				c0.78-0.433,1.564-0.858,2.349-1.282c3.433-1.855,6.908-3.633,10.402-5.37c18.576-9.236,37.77-16.832,57.598-22.887
				c57.699-17.618,116.248-32.368,171.996-55.826c14.383-6.052,28.497-12.731,42.18-20.238
				c15.453-8.478,30.973-17.261,45.134-27.808c18.203-13.558,35.857-31.832,39.119-55.26c1.718-12.337-0.555-27.082-11.18-34.923
				c-9.372-6.917-22.345-5.772-32.762-2.234c-9.262,3.146-17.722,8.834-26.077,13.745c-5.984,3.517-11.49,7.538-16.288,12.581
				c-10.336,10.862-15.352,25.432-14.81,40.355c0.485,13.345,7.552,24.97,19.257,31.359c11.762,6.42,26.204,6.659,38.965,3.585
				c7.038-1.695,13.483-4.765,19.758-8.302c9.093-5.126,18.562-10.031,26.361-17.071c15.124-13.653,19.879-37.74,19.997-57.135
				c-0.005,0.761-7.979,4.491-8.71,4.913c-2.041,1.179-4.08,2.362-6.109,3.561c-0.076,0.045-2.408,1.198-2.501,1.526
				c-5.423,18.986-10.941,38.384-8.789,58.326c0.275,2.549,1.251,1.395,3.161,0.745c1.63-0.554,3.203-1.263,4.756-2
				c3.944-1.872,7.701-4.195,11.476-6.374c6.662-3.846,13.225-7.579,19.041-12.649c20.608-17.966,31.843-44.614,44.81-68.045
				c-5.773,3.333-11.547,6.667-17.32,10c8.938,7.165,17.717,14.527,26.517,21.86c4.356,3.629,8.716,7.254,13.093,10.857
				c2.023,1.666,4.054,3.322,6.09,4.972c0.952,0.772,1.908,1.539,2.864,2.305c0.088,0.07-2.43,3.746-2.644,4.066
				c-11.698,17.503-26.457,32.934-33.638,53.105c-1.807,5.077-2.926,10.365-3.572,15.706c-0.234,1.932,0.033,1.428,1.61,1.48
				c0.86,0.028,1.72-0.01,2.579-0.049c1.956-0.089,3.891-0.43,5.795-0.868c3.091-0.712,6.021-1.992,8.814-3.472
				c6.415-3.398,12.702-7.129,18.89-10.923c13.488-8.27,22.159-23.127,28.851-36.995c8.439-17.49,14.1-36.216,19.202-54.903
				c-5.773,3.333-11.547,6.667-17.32,10c9.982,6.419,21.506,8.321,33.178,8.788c5.691,0.228,11.396,0.06,17.087-0.07
				c2.786-0.064,5.572-0.12,8.359-0.144c2.36-0.02,0.915,0.737,0.101,2.088c-0.827,1.373-1.633,2.758-2.436,4.145
				c-8.028,13.876-15.789,29.322-17.405,45.503c-1.165,11.663,2.958,22.328,13.757,27.75c14.502,7.28,33.278,4.759,48.614,2.295
				c14.892-2.393,29.753-5.679,43.903-10.969c8.41-3.144,16.126-7.472,23.885-11.952c7.216-4.166,14.661-8.151,20.607-14.09
				c9.768-9.755,10.666-22.681,5.161-34.917c-6.869-15.266-20.47-30.003-37.814-31.989c-7.107-0.814-14.281,0.892-20.666,3.965
				c-9.162,4.409-18.897,9.694-26.773,16.226c-11.756,9.751-18.597,24.974-18.049,40.21c0.606,16.847,11.968,33.401,26.306,41.834
				c15.375,9.044,29.213-1.713,42.394-9.862c13.407-8.289,19.742-25.569,22.438-40.301c3.143-17.177,1.527-36.472-8.206-51.367
				c0.116,0.178-17.561,9.185-17.32,10c4.676,15.859,21.704,13.425,34.019,8.69c13.616-5.235,26.442-13.364,38.704-21.115
				c10.719-6.775,20.754-14.617,30.314-22.931c21.768-18.933,41.301-40.807,57.347-64.793c13.815-20.65,26.478-44.67,28.063-69.93
				c0.326-5.19,0.025-10.414-0.953-15.522c-0.451-2.355-1.102-4.668-1.883-6.933c-0.388-1.126-0.839-2.229-1.311-3.322
				c-0.541-1.254-0.77-2.963-2.187-2.256c-14.593,7.274-28.33,15.747-39.56,27.622c-23.526,24.878-39.783,56.967-54.221,87.675
				c-15.251,32.438-28.275,66.017-39.255,100.134c-4.204,13.061-8.276,26.307-11.123,39.74c-2.415,11.394-4.115,25.22,1.81,35.881
				c10.211,18.375,36.594,8.458,50.538,1.115c26.715-14.067,51.81-31.162,67.859-57.377c5.016-8.194,8.86-17.198,10.568-26.681
				c-0.026,0.146-2.657,1.451-2.572,1.403c-2.053,1.158-4.097,2.332-6.138,3.51s-4.08,2.362-6.109,3.561
				c-0.01,0.006-2.451,1.247-2.501,1.526c-4.587,25.466-23.533,47.212-43.442,62.568c-2.592,1.999-5.267,3.89-7.999,5.693
				c-0.64,0.422-1.288,0.834-1.935,1.245c-0.215,0.135-0.43,0.27-0.646,0.405c-4.345,2.677-0.797,0.64,10.644-6.112
				c-1.399,0.783-2.835,1.502-4.273,2.211c-5.071,2.498-10.41,4.513-15.899,5.873c-8.244,2.044-17.793,2.466-25.079-2.572
				c-8.238-5.697-9.781-16.788-9.568-26.031c0.322-14.019,4.723-27.909,8.654-41.271c9.614-32.683,21.673-64.738,35.263-95.964
				c14.295-32.849,30.456-65.895,52.429-94.374c4.421-5.73,9.179-11.21,14.357-16.269c2.214-2.163,4.538-4.211,6.945-6.156
				c1.13-0.913,2.296-1.781,3.476-2.629c0.662-0.476,1.34-0.928,2.021-1.376c6.881-4.528-17.725,9.835-11.495,6.627
				c1.571-0.809,2.897,4.116,3.43,5.602c0.877,2.447,1.509,4.977,1.997,7.527c0.98,5.123,1.125,10.381,0.799,15.575
				c-1.586,25.28-14.705,49.377-28.499,69.995c-16.042,23.979-35.744,45.705-57.494,64.622
				c-8.644,7.519-17.726,14.576-27.321,20.844c-0.978,0.639-1.965,1.263-2.954,1.883c-6.513,4.082,13.471-7.601,8.313-4.747
				c-1.957,1.083-3.966,2.08-5.989,3.033c-3.657,1.723-7.427,3.216-11.299,4.383c-11.468,3.455-24.618,2.656-28.522-10.582
				c-5.773,3.333-11.547,6.667-17.32,10c15.532,23.769,12.12,61.176-5.094,83.274c-1.784,2.29-3.833,4.361-6.073,6.203
				c-0.531,0.436-1.088,0.838-1.645,1.239c-6.653,4.782,20.083-10.742,12.706-7.379c-1.373,0.626-2.822,1.065-4.288,1.412
				c-5.791,1.372-11.715-0.107-16.875-2.82c-14.752-7.756-25.687-24.825-26.969-41.287c-1.194-15.33,6.012-30.497,17.325-40.58
				c1.315-1.172,2.721-2.237,4.153-3.26c7.108-5.074-18.402,9.85-10.575,6.083c0.773-0.372,1.568-0.698,2.362-1.022
				c3.417-1.397,7.042-2.218,10.706-2.599c7.451-0.773,14.85,1.162,21.32,4.811c8.138,4.589,14.244,12.188,19.269,19.895
				c4.134,6.34,7.266,13.554,7.664,21.186c0.313,5.983-1.678,11.724-5.046,16.605c-1.67,2.421-3.74,4.549-5.919,6.51
				c-1.158,1.042-2.391,1.997-3.639,2.928c-0.765,0.57-1.555,1.106-2.349,1.634c-7.102,4.728,16.573-9.215,10.193-5.838
				c-13.581,7.189-28.952,11.06-43.926,14.08c-16.169,3.26-33.222,6.109-49.648,3.236c-11.894-2.08-22.024-8.78-24.296-21.208
				c-2.555-13.979,3.835-29.1,9.699-41.416c2.617-5.496,5.56-10.835,8.631-16.089c0.818-1.4,1.658-2.786,2.501-4.172
				c-0.236,0.387-4.906,0.048-5.518,0.058c-3.769,0.064-7.537,0.174-11.307,0.232c-14.866,0.229-30.309-0.591-43.167-8.86
				c-0.751-0.483-7.961,4.481-8.71,4.913c-2.041,1.179-4.08,2.362-6.109,3.561c-0.067,0.04-2.413,1.204-2.501,1.526
				c-4.098,15.01-8.618,29.91-14.512,44.324c-6.223,15.218-14.117,30.766-26.335,42.075c-1.293,1.197-2.669,2.3-4.076,3.361
				c-0.819,0.617-1.676,1.181-2.538,1.734c21.714-13.921,17.499-9.585,11.834-7.053c-3.302,1.476-6.848,2.308-10.438,2.659
				c-1.721,0.168-3.454,0.13-5.177,0.03c-0.149-0.009,1.093-7.502,1.228-8.178c1.118-5.571,3.06-10.95,5.375-16.125
				c4.325-9.669,10.521-18.399,16.807-26.869c2.98-4.015,6.021-7.986,8.982-12.016c1.456-1.982,2.877-3.989,4.273-6.014
				c0.691-1.002,1.36-2.018,2.028-3.035c1.382-2.105,1.348-1.998-0.593-3.561c-15.706-12.642-30.939-25.861-46.671-38.473
				c-0.549-0.44-8.073,4.546-8.71,4.913c-2.041,1.178-4.08,2.362-6.109,3.561c-0.288,0.17-2.249,1.07-2.501,1.526
				c-11.368,20.541-21.312,42.154-36.855,60.01c-3.674,4.221-7.741,8.09-12.18,11.497c-0.572,0.432-1.151,0.853-1.738,1.265
				c-5.372,3.569-1.807,1.565,10.694-6.014c-1.421,0.751-2.904,1.367-4.397,1.956c-1.276,0.503-2.591,0.899-3.909,1.276
				c0.007-0.002-0.613-6.137-0.647-6.666c-1.152-18.119,4.3-36.111,9.217-53.326c-5.774,3.333-11.547,6.667-17.321,10
				c-0.127,20.805-5.629,44.995-22.192,59.057c-1.468,1.247-3.019,2.393-4.592,3.503c-0.43,0.288-0.859,0.577-1.289,0.865
				c-4.891,3.122-0.955,0.874,11.809-6.743c-0.995,0.542-2.015,1.04-3.038,1.526c-3.621,1.717-7.424,3.032-11.289,4.075
				c-7.107,1.919-14.558,2.524-21.883,1.865c-13.393-1.204-26.24-7.806-32.842-19.845c-7.189-13.11-5.225-30.801,1.122-43.835
				c2.968-6.095,7.273-11.483,12.18-16.124c2.45-2.317,5.126-4.405,7.92-6.289c0.223-0.146,0.445-0.292,0.668-0.439
				c4.76-3.027,0.788-0.751-11.916,6.829c0.814-0.439,1.646-0.846,2.48-1.243c1.624-0.773,3.295-1.442,4.982-2.065
				c10.525-3.889,23.227-4.805,32.959,1.618c11.079,7.312,13.185,22.497,11.778,34.663c-1.239,10.718-5.94,20.686-12.151,29.395
				c-7.2,10.095-16.565,18.542-26.4,26.001c-5.679,4.307-11.625,8.273-17.713,11.976c-6.1,3.711,10.917-6.136,4.157-2.403
				c-1.569,0.867-3.154,1.706-4.739,2.543c-3.568,1.884-7.174,3.695-10.799,5.466c-29.675,14.503-60.947,25.686-92.333,35.844
				c-28.358,9.178-57.049,17.246-85.672,25.542c-18.922,5.484-37.596,11.247-55.72,19.013
				c-13.074,5.602-25.852,11.874-38.242,18.861c-15.724,8.867-31.773,17.729-45.575,29.485c-8.99,7.657-18.243,17.574-19.991,29.738
				c-1.628,11.32,6.057,23.855,16.534,28.096c13.967,5.654,31.714,0.172,45.199-4.323c15.399-5.133,30.205-12.131,44.51-19.764
				c15.956-8.514,31.768-17.395,47.159-28.604c16.03-11.674,30.706-25.188,44.334-39.566c25.213-26.602,46.981-56.925,63.164-89.846
				c14.526-29.551,25.078-63.033,21.907-96.303c0.054,0.566-8.088,4.554-8.71,4.913c-2.041,1.179-4.08,2.362-6.109,3.561
				c-0.327,0.193-2.217,1.05-2.501,1.526c-7.506,12.549-17.364,23.443-28.883,32.427c-2.828,2.205-5.771,4.256-8.783,6.2
				c-7.953,5.131,14.554-8.008,7.201-4.129c-1.866,0.984-3.767,1.902-5.683,2.785c-6.188,2.851-12.635,5.13-19.215,6.89
				c-22.928,6.132-49.981,5.245-68.972-10.533c-23.086-19.18-23.47-53.868-16.249-80.54c5.862-21.65,15.542-42.268,26.951-61.514
				c11.673-19.691,25.726-38.14,42.143-54.118c6.285-6.117,13.021-11.772,20.167-16.856c4.95-3.522,21.434-12.692,1.961-2.156
				c3.335-1.804,6.796-3.367,10.384-4.594c7.425-2.538,16.006-2.572,19.06,5.893c3.281,9.096,0.382,20.566-1.749,29.573
				c-3.165,13.375-7.802,26.403-12.613,39.26c0.088-0.235,2.554-1.393,2.572-1.403c2.053-1.158,4.097-2.332,6.138-3.51
				c2.041-1.179,4.08-2.362,6.109-3.561C1479.813,145.923,1482.036,144.849,1482.175,144.479L1482.175,144.479z"/>
		</g>
	</g>
	<g>
		<g>
			<path d="M2130.662,213.042c0.602-0.57,1.221-1.074,1.905-1.544c-0.099,0.067-0.198,0.134-0.296,0.202
				c-15.564,8.654-20.496,11.51-14.797,8.569c0.474-0.244,0.954-0.479,1.428-0.723c3.014-1.551,5.928-3.323,8.864-5.014
				c3.802-2.19,8.234-4.143,11.467-7.203c-0.541,0.512-1.99,1.075-2.572,1.403c-2.053,1.158-4.097,2.332-6.138,3.51
				s-4.08,2.362-6.109,3.561c-0.699,0.413-1.875,0.933-2.501,1.526c-0.602,0.57-1.221,1.074-1.905,1.544
				c0.099-0.067,0.198-0.134,0.296-0.202c15.564-8.654,20.496-11.51,14.797-8.569c-0.475,0.244-0.954,0.479-1.428,0.723
				c-3.014,1.551-5.928,3.323-8.864,5.014c-3.802,2.19-8.234,4.143-11.467,7.203c0.541-0.512,1.99-1.075,2.572-1.403
				c2.053-1.158,4.097-2.332,6.138-3.51c2.041-1.179,4.08-2.362,6.109-3.561C2128.86,214.154,2130.036,213.635,2130.662,213.042
				L2130.662,213.042z"/>
		</g>
	</g>
	<g>
		<g>
			<path d="M1861.946,240.182c1.627-0.001,3.252,0.006,4.867-0.212c2.007-0.271,3.719-1.406,5.447-2.381
				c3.518-1.985,7.016-4.005,10.503-6.046c1.529-0.895,3.187-1.723,4.612-2.788c1.502-1.123,2.465-2.642,3.319-4.287
				c-0.159,0.307-2.45,1.335-2.572,1.403c-2.053,1.158-4.097,2.332-6.138,3.51c-2.041,1.179-4.08,2.362-6.109,3.561
				c-0.258,0.152-2.273,1.086-2.501,1.526c-0.84,1.617-1.821,3.306-3.389,4.323c5.272-3.053,10.545-6.106,15.817-9.159
				c-0.125,0.07-0.25,0.14-0.375,0.209c0.402-0.213,0.805-0.426,1.208-0.639c-2.292,1.089-4.888,0.979-7.367,0.98
				c-0.539,0-2.259,1.227-2.572,1.403c-2.053,1.158-4.097,2.332-6.138,3.51c-2.041,1.179-4.08,2.362-6.109,3.561
				C1864.279,238.756,1862.334,240.182,1861.946,240.182L1861.946,240.182z"/>
		</g>
	</g>
</g>
<text transform="matrix(-0.114 0.9935 -0.9935 -0.114 728.5826 290.56)" fill="#282828" font-family="'MyriadPro-Regular'" font-size="12">watermark</text>
<text transform="matrix(0.7787 0.6274 -0.6274 0.7787 1730.8059 237.48)" fill="#353535" font-family="'MyriadPro-Regular'" font-size="12">watermark</text>
</svg>
